<svg xmlns="http://www.w3.org/2000/svg" width="67" height="67" viewBox="0 0 67 67" version="1.1"><path d="M 15.500 3.114 C -7.107 12.279, -0.451 36.864, 25.104 38.592 C 41.972 39.732, 44.994 41.190, 43.428 47.430 C 41.617 54.646, 23.737 55.141, 22.821 48 C 22.514 45.606, 22.173 45.488, 14.750 45.208 L 7 44.916 7 55.458 L 7 66 24.818 66 C 45.778 66, 50.838 64.927, 56.740 59.230 C 71.602 44.884, 59.210 28, 33.819 28 C 16.987 28, 15.675 16.296, 32.352 14.912 C 40.177 14.262, 42 15.172, 42 19.730 C 42 22.037, 42.153 22.073, 50.750 21.789 L 59.500 21.500 59.500 11.500 L 59.500 1.500 40 1.294 C 22.437 1.108, 20.003 1.289, 15.500 3.114" stroke="none" fill="#a454f5" fill-rule="evenodd"/><path d="" stroke="none" fill="#ac54f4" fill-rule="evenodd"/></svg>