<svg width="181" height="76" viewBox="0 0 181 76" fill="none" xmlns="http://www.w3.org/2000/svg">
<path fill-rule="evenodd" clip-rule="evenodd" d="M15.5 3.11384C-7.10701 12.2788 -0.451006 36.8638 25.104 38.5918C41.972 39.7318 44.994 41.1898 43.428 47.4298C41.617 54.6458 23.737 55.1408 22.821 47.9998C22.514 45.6058 22.173 45.4878 14.75 45.2078L6.99999 44.9158V55.4578V65.9998H24.818C45.778 65.9998 50.838 64.9268 56.74 59.2298C71.602 44.8838 59.21 27.9998 33.819 27.9998C16.987 27.9998 15.675 16.2958 32.352 14.9118C40.177 14.2618 42 15.1718 42 19.7298C42 22.0368 42.153 22.0728 50.75 21.7888L59.5 21.4998V11.4998V1.49984L40 1.29384C22.437 1.10784 20.003 1.28884 15.5 3.11384Z" fill="#A454F5"/>
<path d="M95.416 35.408V62H88.648V58.64C87.784 59.792 86.648 60.704 85.24 61.376C83.864 62.016 82.36 62.336 80.728 62.336C78.648 62.336 76.808 61.904 75.208 61.04C73.608 60.144 72.344 58.848 71.416 57.152C70.52 55.424 70.072 53.376 70.072 51.008V35.408H76.792V50.048C76.792 52.16 77.32 53.792 78.376 54.944C79.432 56.064 80.872 56.624 82.696 56.624C84.552 56.624 86.008 56.064 87.064 54.944C88.12 53.792 88.648 52.16 88.648 50.048V35.408H95.416ZM108.766 39.536C109.63 38.128 110.75 37.024 112.126 36.224C113.534 35.424 115.134 35.024 116.926 35.024V42.08H115.15C113.038 42.08 111.438 42.576 110.35 43.568C109.294 44.56 108.766 46.288 108.766 48.752V62H102.046V35.408H108.766V39.536ZM131.869 34.976C133.853 34.976 135.597 35.376 137.101 36.176C138.605 36.944 139.789 37.952 140.653 39.2V35.408H147.421V62.192C147.421 64.656 146.925 66.848 145.933 68.768C144.941 70.72 143.453 72.256 141.469 73.376C139.485 74.528 137.085 75.104 134.269 75.104C130.493 75.104 127.389 74.224 124.957 72.464C122.557 70.704 121.197 68.304 120.877 65.264H127.549C127.901 66.48 128.653 67.44 129.805 68.144C130.989 68.88 132.413 69.248 134.077 69.248C136.029 69.248 137.613 68.656 138.829 67.472C140.045 66.32 140.653 64.56 140.653 62.192V58.064C139.789 59.312 138.589 60.352 137.053 61.184C135.549 62.016 133.821 62.432 131.869 62.432C129.629 62.432 127.581 61.856 125.725 60.704C123.869 59.552 122.397 57.936 121.309 55.856C120.253 53.744 119.725 51.328 119.725 48.608C119.725 45.92 120.253 43.536 121.309 41.456C122.397 39.376 123.853 37.776 125.677 36.656C127.533 35.536 129.597 34.976 131.869 34.976ZM140.653 48.704C140.653 47.072 140.333 45.68 139.693 44.528C139.053 43.344 138.189 42.448 137.101 41.84C136.013 41.2 134.845 40.88 133.597 40.88C132.349 40.88 131.197 41.184 130.141 41.792C129.085 42.4 128.221 43.296 127.549 44.48C126.909 45.632 126.589 47.008 126.589 48.608C126.589 50.208 126.909 51.616 127.549 52.832C128.221 54.016 129.085 54.928 130.141 55.568C131.229 56.208 132.381 56.528 133.597 56.528C134.845 56.528 136.013 56.224 137.101 55.616C138.189 54.976 139.053 54.08 139.693 52.928C140.333 51.744 140.653 50.336 140.653 48.704ZM178.704 48.128C178.704 49.088 178.64 49.952 178.512 50.72H159.072C159.232 52.64 159.904 54.144 161.088 55.232C162.272 56.32 163.728 56.864 165.456 56.864C167.952 56.864 169.728 55.792 170.784 53.648H178.032C177.264 56.208 175.792 58.32 173.616 59.984C171.44 61.616 168.768 62.432 165.6 62.432C163.04 62.432 160.736 61.872 158.688 60.752C156.672 59.6 155.088 57.984 153.936 55.904C152.816 53.824 152.256 51.424 152.256 48.704C152.256 45.952 152.816 43.536 153.936 41.456C155.056 39.376 156.624 37.776 158.64 36.656C160.656 35.536 162.976 34.976 165.6 34.976C168.128 34.976 170.384 35.52 172.368 36.608C174.384 37.696 175.936 39.248 177.024 41.264C178.144 43.248 178.704 45.536 178.704 48.128ZM171.744 46.208C171.712 44.48 171.088 43.104 169.872 42.08C168.656 41.024 167.168 40.496 165.408 40.496C163.744 40.496 162.336 41.008 161.184 42.032C160.064 43.024 159.376 44.416 159.12 46.208H171.744Z" fill="#A454F5"/>
</svg>
